# xmcd CD database file
#
# Track frame offsets:
#	150
#	14340
#	36284
#	55911
#	75222
#	99465
#	119372
#	135235
#	158040
#	171890
#	205893
#	218862
#
# Disc length: 3182 seconds
#
# Revision: 0
# Processed by: cddbd v1.5.2PL0 Copyright (c) Steve Scherf et al.
# Submitted via: CDex 1.51
#
DISCID=950c6c0c
DTITLE=Melissa Sigler - Secrets
DYEAR=2001
DGENRE=Zydeco
TTITLE0=Secrets
TTITLE1=Back To The Bayou
TTITLE2=Zydeco
TTITLE3=Be Happy Blue
TTITLE4=Light On In The Kitchen
TTITLE5=Freight Train Blues
TTITLE6=Save A Place For Me In Texas
TTITLE7=No Good Reason
TTITLE8=Poor Me
TTITLE9=Cold Summer Day
TTITLE10=I Know When I'm Left
TTITLE11=2000 Blues (Instrumental)
EXTD=YEAR: 2001
EXTT0=
EXTT1=
EXTT2=
EXTT3=
EXTT4=
EXTT5=
EXTT6=
EXTT7=
EXTT8=
EXTT9=
EXTT10=
EXTT11=
PLAYORDER=
